<mxfile host="app.diagrams.net" modified="2024-07-10T23:16:09.516Z" agent="Mozilla/5.0 (Windows NT 10.0; Win64; x64) AppleWebKit/537.36 (KHTML, like Gecko) Chrome/126.0.0.0 Safari/537.36 Edg/126.0.0.0" etag="gLEokyOlY94s8E9P_R5a" version="24.6.4" type="device">
  <diagram name="Page-1" id="RfQIuGeGih7GWDA5iDV5">
    <mxGraphModel dx="2306" dy="1145" grid="1" gridSize="10" guides="1" tooltips="1" connect="1" arrows="1" fold="1" page="1" pageScale="1" pageWidth="850" pageHeight="1100" math="0" shadow="0">
      <root>
        <mxCell id="0" />
        <mxCell id="1" parent="0" />
        <mxCell id="tDNR8OormqJz6vKzIA01-1" value="Web browser/User Input" style="rounded=0;whiteSpace=wrap;html=1;" vertex="1" parent="1">
          <mxGeometry x="40" y="30" width="230" height="200" as="geometry" />
        </mxCell>
        <mxCell id="tDNR8OormqJz6vKzIA01-3" value="&lt;h1&gt;UBUNTU on&lt;/h1&gt;&lt;h1&gt;AZURE Virtual Instance with Public IP/DNS&lt;/h1&gt;" style="ellipse;whiteSpace=wrap;html=1;aspect=fixed;" vertex="1" parent="1">
          <mxGeometry x="410" y="190" width="570" height="570" as="geometry" />
        </mxCell>
        <mxCell id="tDNR8OormqJz6vKzIA01-2" value="NGINX web server" style="whiteSpace=wrap;html=1;aspect=fixed;" vertex="1" parent="1">
          <mxGeometry x="660" y="210" width="120" height="120" as="geometry" />
        </mxCell>
        <mxCell id="tDNR8OormqJz6vKzIA01-6" style="edgeStyle=orthogonalEdgeStyle;rounded=0;orthogonalLoop=1;jettySize=auto;html=1;exitX=1;exitY=0.5;exitDx=0;exitDy=0;entryX=0;entryY=0.5;entryDx=0;entryDy=0;" edge="1" parent="1" source="tDNR8OormqJz6vKzIA01-4" target="tDNR8OormqJz6vKzIA01-5">
          <mxGeometry relative="1" as="geometry" />
        </mxCell>
        <mxCell id="tDNR8OormqJz6vKzIA01-24" value="" style="edgeStyle=orthogonalEdgeStyle;rounded=0;orthogonalLoop=1;jettySize=auto;html=1;" edge="1" parent="1" source="tDNR8OormqJz6vKzIA01-4" target="tDNR8OormqJz6vKzIA01-8">
          <mxGeometry relative="1" as="geometry" />
        </mxCell>
        <mxCell id="tDNR8OormqJz6vKzIA01-25" style="edgeStyle=orthogonalEdgeStyle;rounded=0;orthogonalLoop=1;jettySize=auto;html=1;exitX=0;exitY=0.5;exitDx=0;exitDy=0;entryX=1;entryY=0.5;entryDx=0;entryDy=0;" edge="1" parent="1" source="tDNR8OormqJz6vKzIA01-4" target="tDNR8OormqJz6vKzIA01-20">
          <mxGeometry relative="1" as="geometry" />
        </mxCell>
        <mxCell id="tDNR8OormqJz6vKzIA01-26" style="edgeStyle=orthogonalEdgeStyle;rounded=0;orthogonalLoop=1;jettySize=auto;html=1;entryX=0.5;entryY=0;entryDx=0;entryDy=0;" edge="1" parent="1" source="tDNR8OormqJz6vKzIA01-4" target="tDNR8OormqJz6vKzIA01-22">
          <mxGeometry relative="1" as="geometry" />
        </mxCell>
        <mxCell id="tDNR8OormqJz6vKzIA01-4" value="Python code" style="whiteSpace=wrap;html=1;aspect=fixed;" vertex="1" parent="1">
          <mxGeometry x="630" y="610" width="50" height="50" as="geometry" />
        </mxCell>
        <mxCell id="tDNR8OormqJz6vKzIA01-11" style="edgeStyle=orthogonalEdgeStyle;rounded=0;orthogonalLoop=1;jettySize=auto;html=1;exitX=0.5;exitY=0;exitDx=0;exitDy=0;entryX=0.5;entryY=1;entryDx=0;entryDy=0;" edge="1" parent="1" source="tDNR8OormqJz6vKzIA01-5" target="tDNR8OormqJz6vKzIA01-8">
          <mxGeometry relative="1" as="geometry" />
        </mxCell>
        <mxCell id="tDNR8OormqJz6vKzIA01-5" value="Flask" style="whiteSpace=wrap;html=1;aspect=fixed;" vertex="1" parent="1">
          <mxGeometry x="750" y="610" width="80" height="80" as="geometry" />
        </mxCell>
        <mxCell id="tDNR8OormqJz6vKzIA01-7" style="edgeStyle=orthogonalEdgeStyle;rounded=0;orthogonalLoop=1;jettySize=auto;html=1;exitX=0.5;exitY=0;exitDx=0;exitDy=0;entryX=0.25;entryY=0;entryDx=0;entryDy=0;" edge="1" parent="1" source="tDNR8OormqJz6vKzIA01-5" target="tDNR8OormqJz6vKzIA01-5">
          <mxGeometry relative="1" as="geometry" />
        </mxCell>
        <mxCell id="tDNR8OormqJz6vKzIA01-13" style="edgeStyle=orthogonalEdgeStyle;rounded=0;orthogonalLoop=1;jettySize=auto;html=1;entryX=0.5;entryY=1;entryDx=0;entryDy=0;" edge="1" parent="1" source="tDNR8OormqJz6vKzIA01-8" target="tDNR8OormqJz6vKzIA01-12">
          <mxGeometry relative="1" as="geometry" />
        </mxCell>
        <mxCell id="tDNR8OormqJz6vKzIA01-8" value="wsgi" style="rounded=0;whiteSpace=wrap;html=1;" vertex="1" parent="1">
          <mxGeometry x="665" y="520" width="120" height="50" as="geometry" />
        </mxCell>
        <mxCell id="tDNR8OormqJz6vKzIA01-19" style="edgeStyle=orthogonalEdgeStyle;rounded=0;orthogonalLoop=1;jettySize=auto;html=1;exitX=0.5;exitY=0;exitDx=0;exitDy=0;entryX=0.5;entryY=1;entryDx=0;entryDy=0;" edge="1" parent="1" source="tDNR8OormqJz6vKzIA01-12" target="tDNR8OormqJz6vKzIA01-2">
          <mxGeometry relative="1" as="geometry" />
        </mxCell>
        <mxCell id="tDNR8OormqJz6vKzIA01-12" value="Gunicorn" style="rounded=0;whiteSpace=wrap;html=1;" vertex="1" parent="1">
          <mxGeometry x="660" y="370" width="120" height="50" as="geometry" />
        </mxCell>
        <mxCell id="tDNR8OormqJz6vKzIA01-18" value="" style="shape=flexArrow;endArrow=classic;startArrow=classic;html=1;rounded=0;entryX=1;entryY=0.5;entryDx=0;entryDy=0;exitX=0.5;exitY=0;exitDx=0;exitDy=0;" edge="1" parent="1" source="tDNR8OormqJz6vKzIA01-3" target="tDNR8OormqJz6vKzIA01-1">
          <mxGeometry width="100" height="100" relative="1" as="geometry">
            <mxPoint x="370" y="630" as="sourcePoint" />
            <mxPoint x="470" y="530" as="targetPoint" />
            <Array as="points">
              <mxPoint x="695" y="130" />
            </Array>
          </mxGeometry>
        </mxCell>
        <mxCell id="tDNR8OormqJz6vKzIA01-20" value="ChatGPT&lt;div&gt;OpenAPI&lt;/div&gt;" style="whiteSpace=wrap;html=1;aspect=fixed;" vertex="1" parent="1">
          <mxGeometry x="110" y="610" width="80" height="80" as="geometry" />
        </mxCell>
        <mxCell id="tDNR8OormqJz6vKzIA01-22" value="outfile.txt" style="whiteSpace=wrap;html=1;aspect=fixed;" vertex="1" parent="1">
          <mxGeometry x="660" y="700" width="50" height="50" as="geometry" />
        </mxCell>
      </root>
    </mxGraphModel>
  </diagram>
</mxfile>
